<?xml version="1.0" standalone="no"?>
<!DOCTYPE svg PUBLIC "-//W3C//DTD SVG 20010904//EN"
 "http://www.w3.org/TR/2001/REC-SVG-20010904/DTD/svg10.dtd">
<svg version="1.0" xmlns="http://www.w3.org/2000/svg"
 width="220.000000pt" height="170.000000pt" viewBox="0 0 220.000000 170.000000"
 preserveAspectRatio="xMidYMid meet">

<g transform="translate(0.000000,170.000000) scale(0.100000,-0.100000)"
fill="#000000" stroke="none">
<path d="M410 1593 c0 -11 7 -27 17 -34 14 -12 16 -12 11 1 -2 8 5 23 16 33
l21 18 -21 -10 c-15 -7 -24 -7 -32 1 -9 9 -12 7 -12 -9z"/>
<path d="M152 1523 c-15 -16 -21 -22 -12 -15 9 6 20 12 24 12 4 0 14 7 22 15
9 8 11 15 5 15 -6 0 -23 -12 -39 -27z"/>
<path d="M634 1452 c-15 -39 -1 -55 36 -39 24 10 24 11 3 14 -15 3 -23 13 -25
30 -3 25 -3 25 -14 -5z"/>
<path d="M440 1390 c-7 -16 -19 -30 -26 -30 -20 0 -17 -17 4 -24 9 -3 22 -8
28 -11 6 -3 10 13 11 45 0 27 0 50 -2 50 -1 0 -8 -13 -15 -30z"/>
<path d="M270 1380 c0 -5 7 -7 15 -4 8 4 15 8 15 10 0 2 -7 4 -15 4 -8 0 -15
-4 -15 -10z"/>
<path d="M557 1221 c16 -15 39 -34 52 -41 l25 -13 -25 31 c-13 17 -37 35 -52
41 l-28 10 28 -28z"/>
<path d="M262 1168 c1 -37 5 -48 22 -56 17 -7 25 -5 39 14 23 30 22 35 -5 25
-20 -8 -25 -4 -40 28 l-17 36 1 -47z"/>
<path d="M420 1146 c0 -5 9 -23 20 -41 11 -18 19 -43 18 -55 -2 -14 6 -28 20
-38 23 -15 23 -15 16 14 -7 26 -6 28 9 16 12 -10 29 -12 59 -7 l43 8 -50 12
c-27 7 -57 22 -66 34 -10 12 -22 21 -28 21 -5 0 -17 10 -25 22 -9 12 -16 19
-16 14z"/>
<path d="M360 1034 c0 -12 4 -14 13 -7 6 6 19 13 27 16 9 3 3 6 -12 6 -20 1
-28 -4 -28 -15z"/>
<path d="M416 944 l-17 -37 -24 23 c-29 27 -31 21 -10 -19 8 -16 12 -31 10
-33 -11 -11 41 -25 63 -17 28 11 30 33 1 26 -15 -4 -19 -2 -15 8 8 22 19 85
14 85 -2 0 -12 -16 -22 -36z"/>
<path d="M475 815 c-37 -75 -43 -81 -79 -89 -26 -6 -50 -5 -69 2 -23 9 -26 8
-18 -2 6 -8 30 -17 54 -20 23 -4 61 -16 85 -27 47 -23 72 -20 72 11 0 14 -7
20 -21 20 -23 0 -23 0 6 79 9 24 15 58 13 75 -3 28 -6 24 -43 -49z"/>
<path d="M341 658 c5 -9 18 -19 28 -23 11 -3 18 -11 16 -18 -7 -17 15 -46 22
-29 2 6 13 12 24 12 22 0 24 9 8 44 -9 20 -20 25 -59 28 -42 3 -47 1 -39 -14z"/>
<path d="M1240 360 l0 -270 90 0 90 0 0 146 c0 84 4 144 9 142 5 -1 79 -67
164 -145 l156 -143 87 0 87 0 -6 137 c-4 75 -7 196 -7 270 l0 133 -90 0 -90 0
0 -146 c0 -84 -4 -144 -9 -142 -5 2 -79 67 -164 146 l-156 142 -80 0 -81 0 0
-270z"/>
<path d="M423 574 c-2 -7 -11 -10 -19 -7 -8 3 -14 -1 -14 -10 0 -9 13 -18 32
-22 27 -6 36 -3 55 19 l23 27 -4 -33 c-3 -18 -5 -36 -5 -40 -1 -11 -41 -10
-41 1 0 17 -43 20 -55 4 -7 -9 -17 -13 -23 -9 -9 5 -12 -47 -12 -203 l0 -211
95 0 95 0 0 193 c0 107 -3 197 -7 200 -3 4 -14 29 -22 55 -15 45 -18 47 -54
48 -23 1 -41 -4 -44 -12z m27 -168 c0 -7 -7 -19 -15 -26 -13 -11 -18 -10 -29
6 -17 23 -12 31 9 14 12 -10 15 -10 15 4 0 9 5 16 10 16 6 0 10 -6 10 -14z
m44 -120 c-3 -8 -15 -16 -27 -19 -21 -6 -21 -6 2 14 28 23 32 24 25 5z"/>
</g>
</svg>
